<?xml version="1.0" encoding="utf-8"?>
<!-- Generator: Adobe Illustrator 18.1.1, SVG Export Plug-In . SVG Version: 6.00 Build 0)  -->
<svg version="1.1" id="Layer_1" xmlns="http://www.w3.org/2000/svg" xmlns:xlink="http://www.w3.org/1999/xlink" x="0px" y="0px"
	 viewBox="0 0 150 150" enable-background="new 0 0 150 150" xml:space="preserve">
<g>
	<path fill="#333A3E" d="M75,150c-41.4,0-75-33.6-75-75S33.6,0,75,0s75,33.6,75,75S116.4,150,75,150z M75,7.9
		C38.1,7.9,7.9,38.1,7.9,75s30.2,67.1,67.1,67.1s67.1-30.2,67.1-67.1S112.1,7.9,75,7.9z"/>
	<g>
		<rect x="40.7" y="104.1" fill="#333A3E" width="68.2" height="4.9"/>
		<path fill="#333A3E" d="M95.8,67.4c2.2,1.4,3.6,3.8,3.6,6.5c0,2.2-0.8,4.1-2.2,5.5l-0.5,0.3c-1.4,1.3-3.2,1.9-5.2,1.9
			c-4.3,0-7.9-3.5-7.9-7.9c0-3.6,2.5-6.8,5.8-7.6L74.8,31.7l0,0l0,0L60.2,66.2c3.3,0.8,5.8,3.9,5.8,7.6c0,4.3-3.5,7.9-7.9,7.9
			c-2.1,0-3.8-0.8-5.2-1.9l0-0.3c-1.4-1.4-2.2-3.3-2.2-5.5c0-2.7,1.4-5.2,3.6-6.5L33.5,54.2l7.3,45.8h7.9h2.1h13.3h4.1h6.8l0,0l0,0
			h0.3h6.9h4.1h13.3h2.1h7.9l7.3-45.8L95.8,67.4z"/>
	</g>
</g>
</svg>
