<?xml version="1.0" encoding="utf-8"?>
<!-- Generator: Adobe Illustrator 19.1.0, SVG Export Plug-In . SVG Version: 6.00 Build 0)  -->
<svg version="1.1" id="Layer_1" xmlns="http://www.w3.org/2000/svg" xmlns:xlink="http://www.w3.org/1999/xlink" x="0px" y="0px"
	 viewBox="-84 145.3 150 150" style="enable-background:new -84 145.3 150 150;" xml:space="preserve">
<style type="text/css">
	.st0{fill:#333A3E;}
</style>
<g>
	<path class="st0" d="M-9,295.3c-41.4,0-75-33.6-75-75s33.6-75,75-75s75,33.6,75,75S32.4,295.3-9,295.3z M-9,153.2
		c-36.9,0-67.1,30.2-67.1,67.1s30.2,67.1,67.1,67.1s67.1-30,67.1-67.1S27.9,153.2-9,153.2z"/>
	<path class="st0" d="M21.9,185.1h-61.9c-3.5,0-6.3,2.8-6.3,6.3v39.5c0,3.5,2.8,6.3,6.3,6.3h9.5h2.5l-10.6,18.6l27.9-18.6h2.4h30.2
		c3.5,0,6.3-2.8,6.3-6.3v-28.4v-11.2C28.3,187.8,25.4,185.1,21.9,185.1z M-24.8,214.1c-2.2,0-4.1-1.9-4.1-4.1c0-2.2,1.9-4.1,4.1-4.1
		s4.1,1.9,4.1,4.1C-20.5,212.2-22.4,214.1-24.8,214.1z M-8.2,214.1c-0.3,0-0.5,0-0.8,0c-2.2,0-4.1-1.9-4.1-4.1
		c0-2.2,1.9-4.1,4.1-4.1c0.3,0,0.8,0,1.1,0.2c1.7,0.5,3.2,2.1,3.2,3.9C-4.9,212.1-6.3,213.7-8.2,214.1z M2.5,210
		c0-2.2,1.9-4.1,4.1-4.1s4.1,1.9,4.1,4.1c0,2.2-1.9,4.1-4.1,4.1S2.5,212.2,2.5,210z"/>
</g>
</svg>
