<?xml version="1.0" encoding="utf-8"?>
<!-- Generator: Adobe Illustrator 18.1.1, SVG Export Plug-In . SVG Version: 6.00 Build 0)  -->
<svg version="1.1" id="Layer_1" xmlns="http://www.w3.org/2000/svg" xmlns:xlink="http://www.w3.org/1999/xlink" x="0px" y="0px"
	 viewBox="0 0 150 150" enable-background="new 0 0 150 150" xml:space="preserve">
<g>
	<g>
		<path fill="#FFFFFF" d="M96.2,57.6c0-3.3-0.6-6.2-1.6-8.5s-2.2-4.3-3.6-5.8c-1.4-1.6-3.2-2.8-4.9-3.8c-1.7-0.9-3.6-1.7-5.4-2.2
			c-1.7-0.5-3.8-0.6-5.7-0.6s-3.8,0.2-5.7,0.6c-1.9,0.5-3.6,1.1-5.4,2.2c-1.7,1.1-3.3,2.2-4.9,3.8c-1.4,1.6-2.7,3.5-3.6,5.8
			c-0.9,2.4-1.6,5.2-1.6,8.5l-3.6,0c0-3.6,0.6-6.6,1.6-9.2c0.9-2.7,2.2-4.7,3.6-6.6s3.2-3.3,4.9-4.6c1.7-1.3,3.6-2.1,5.7-2.8
			c1.9-0.6,3.9-1.1,6-1.4c2.1-0.2,4.1-0.2,6,0c2.1,0.2,3.9,0.6,6,1.4c1.9,0.6,3.8,1.6,5.7,2.8c1.7,1.3,3.5,2.7,4.9,4.6
			c1.4,1.9,2.7,3.9,3.6,6.6c0.9,2.7,1.6,5.7,1.6,9.2H96.2z"/>
	</g>
	<path fill="#FFFFFF" d="M76.1,0C35.7-0.6,1.7,31.5,0.1,71.9C-1,98.2,11.7,122,31.6,136.1C43.9,144.8,58.9,150,75,150
		s31.1-5.2,43.4-13.9C137.5,122.5,150,100.3,150,75C150,34,117,0.6,76.1,0z M118.4,126.2V63.8c0-1.7-1.4-3.2-3.2-3.2H34.7
		c-1.7,0-3.2,1.4-3.2,3.2v62.4C16.8,113.6,7.6,94.9,7.9,74C8.4,38.3,37.4,9,73,7.9c37.8-1.1,69.1,29.5,69.1,67.1
		C142.1,95.5,132.9,113.8,118.4,126.2z"/>
</g>
</svg>
