<?xml version="1.0" encoding="utf-8"?>
<!-- Generator: Adobe Illustrator 18.1.1, SVG Export Plug-In . SVG Version: 6.00 Build 0)  -->
<svg version="1.1" id="Layer_1" xmlns="http://www.w3.org/2000/svg" xmlns:xlink="http://www.w3.org/1999/xlink" x="0px" y="0px"
	 viewBox="0 0 150 150" enable-background="new 0 0 150 150" xml:space="preserve">
<path fill="none" d="M165,138c-48,0-87.1,38.9-87.1,87.1c0,19.1,6.1,36.7,16.6,51H115v20.1c2,1.4,4.3,2.9,6.6,4.1v-44.7h34.2v56
	c2.3,0.2,4.3,0.4,6.6,0.4v-75.2h34.2v69.3c2.9-1,5.5-2.3,8.2-3.7V191.9H239v78.7c8.2-13.3,12.9-28.9,12.9-45.7
	C252.1,176.9,213,138,165,138z M190.4,199.5l-29.9-30.5l37.1-6.4L190.4,199.5z"/>
<path fill="#333A3E" d="M75.1,0C33.7,0,0,33.7,0,75.1c0,14.4,4.1,28,11.2,39.4c6.3,10.3,15,18.8,25.3,25c1.6,0.9,3.3,1.9,5.1,2.7
	c8.1,4.1,17.1,6.6,26.4,7.6c1.7,0.2,3.3,0.3,5.1,0.3c0.6,0,1.4,0,2.1,0c8.5,0,16.8-1.4,24.3-4.1c2.2-0.8,4.3-1.6,6.3-2.5
	c10.3-4.6,19.3-11.4,26.4-19.9c11.2-13.1,17.9-30,17.9-48.7C150.2,33.7,116.5,0,75.1,0z M105.7,49.5v85.2c-2.1,1.1-4.1,2.1-6.3,2.8
	V84.1H73v58c-1.7,0-3.3-0.2-5.1-0.3V98.6H41.6v34.5c-1.7-0.9-3.5-2.1-5.1-3.2v-15.5H20.7c-2.3-3.1-4.3-6.5-6-10
	c0.7-0.3,1.4-0.7,2.1-1.1c2.5-1.4,5.1-2.7,7.3-4c2.2-1.3,4.4-2.7,6.6-4c2.1-1.3,4.1-2.7,6.2-4c2.1-1.3,4-2.7,5.8-4
	c1.9-1.4,3.8-2.7,5.5-4.1c1.9-1.3,3.6-2.7,5.4-4.1c1.7-1.4,3.5-2.8,5.2-4.3c1.7-1.4,3.3-2.8,5.1-4.4c1.7-1.6,3.3-3.2,5.1-4.7
	c1.7-1.7,3.3-3.3,5.1-5.1c1.7-1.7,3.3-3.5,5.1-5.4c1.6-1.9,3.3-3.8,5.1-5.8c0.8-0.9,1.5-1.8,2.3-2.8l8.3,8.4l5.5-28.5l-28.6,4.9
	l8.4,8.6c-1.1,1.3-2.3,2.7-3.4,4c-1.7,2.2-3.5,4.1-5.2,6c-1.7,1.9-3.5,3.8-5.2,5.5c-1.7,1.7-3.5,3.5-5.2,5.1
	c-1.7,1.6-3.3,3.2-5.2,4.7c-1.9,1.6-3.6,3.2-5.4,4.6c-1.7,1.6-3.5,3-5.4,4.4c-1.9,1.4-3.8,2.8-5.7,4.3c-1.9,1.4-4,2.7-6,4.1
	c-2.1,1.4-4.1,2.7-6.3,4.1c-2.2,1.4-4.4,2.7-6.8,4.1c-2.4,1.3-4.9,2.7-7.4,4c-0.5,0.3-1,0.5-1.5,0.8c-2.2-6.6-3.4-13.7-3.4-21
	c0-37,30.2-67.2,67.2-67.2c37,0,67.2,30,67.2,67.2c0,13-3.6,25-10,35.2V49.5H105.7z"/>
</svg>
