<?xml version="1.0" encoding="utf-8"?>
<!-- Generator: Adobe Illustrator 18.1.1, SVG Export Plug-In . SVG Version: 6.00 Build 0)  -->
<svg version="1.1" id="Layer_1" xmlns="http://www.w3.org/2000/svg" xmlns:xlink="http://www.w3.org/1999/xlink" x="0px" y="0px"
	 viewBox="0 0 150 150" enable-background="new 0 0 150 150" xml:space="preserve">
<path fill="none" d="M252.1,224.9c0-48-39.1-87.1-87.1-87.1s-87.1,39.1-87.1,87.1c0,40.6,27.7,74.6,65.2,84.2
	c-0.2-4.7-0.8-9-1.6-10.2c-1.6-2.3-15.6-19.7-16.6-30.7c0,0-0.2-1.6-0.2-2c-0.4-4.3-2-19.3-7.8-28.5c0,0-2.9-5.5,2-7.2
	c0,0,4.3-1.4,10,3.9c0,0,9,9.2,11.9,22.1h0.8v-63.7c0-4.1,3.3-7.6,7.2-7.6c3.9,0,7.2,3.3,7.2,7.6v45.7h1.2v-11.9l0,0c0,0,0,0,0-0.2
	c0-4.1,3.3-7.6,7.2-7.6c3.9,0,7.2,3.3,7.2,7.6c0,0,0,0,0,0.2l0,0v11.9h1v-7l0,0c0,0,0,0,0-0.2c0-4.1,3.3-7.6,7.2-7.6
	s7.2,3.3,7.2,7.6c0,0,0,0,0,0.2l0,0v7h1.2v-1l0,0c0,0,0,0,0-0.2c0-4.1,3.3-7.6,7.2-7.6s7.2,3.3,7.2,7.6c0,0,0,0,0,0.2l0,0v11.7
	l0.4,30.7c0,0,0.4,7.2-4.3,13.5c-3.3,4.5-4.9,8-4.9,11.1c0,0,0,1,0,2.5C227.5,295.6,252.1,263,252.1,224.9z"/>
<g>
	<circle fill="none" stroke="#FFFFFF" stroke-width="1.25" stroke-miterlimit="10" cx="62.5" cy="48.2" r="18.9"/>
	<circle fill="none" stroke="#FFFFFF" stroke-width="1.5" stroke-miterlimit="10" cx="62.4" cy="48.3" r="12.3"/>
	<path fill="#FFFFFF" d="M75,0C33.6,0,0,33.6,0,75c0,35.7,24.9,65.5,58.4,73.1c5.4,1.3,10.9,1.9,16.6,1.9c7.6,0,14.7-1.1,21.6-3.2
		c30.8-9.3,53.4-37.9,53.4-71.8C150,33.6,116.4,0,75,0z M96.8,138.5c0-1.3,0-1.9,0-1.9c0-2.4,1.3-5.1,3.8-8.5
		c3.6-5.1,3.3-10.4,3.3-10.4l-0.3-23.7v-9l0,0c0,0,0,0,0-0.2c0-3.2-2.5-5.8-5.5-5.8c-3,0-5.5,2.5-5.5,5.8c0,0,0,0,0,0.2l0,0v0.8
		h-0.9v-5.4l0,0c0,0,0,0,0-0.2c0-3.2-2.5-5.8-5.5-5.8s-5.5,2.5-5.5,5.8c0,0,0,0,0,0.2l0,0v5.4h-0.8v-9.2l0,0c0,0,0,0,0-0.2
		c0-3.2-2.5-5.8-5.5-5.8c-3,0-5.5,2.5-5.5,5.8c0,0,0,0,0,0.2l0,0v9.2h-0.9V50.5c0-3.2-2.5-5.8-5.5-5.8c-3,0-5.5,2.5-5.5,5.8v49.1
		h-0.6c-2.2-10.1-9.2-17.1-9.2-17.1c-4.1-4.1-7.4-3.2-7.4-3.2c-3.6,1.3-1.6,5.5-1.6,5.5c4.4,7.1,5.8,18.6,6,21.9
		c0,0.3,0.2,1.6,0.2,1.6c0.8,8.5,11.5,21.9,12.8,23.7c0.6,0.9,1.1,4.3,1.3,7.9C29.2,132.5,7.9,106.3,7.9,75
		C7.9,38.1,38.1,7.9,75,7.9s67.1,30.2,67.1,67.1C142.1,104.4,123.2,129.5,96.8,138.5z"/>
</g>
</svg>
